<?xml version="1.0" encoding="UTF-8"?>
<svg id="Layer_1" data-name="Layer 1" xmlns="http://www.w3.org/2000/svg" xmlns:xlink="http://www.w3.org/1999/xlink" viewBox="0 0 1302.68 624.82">
  <defs>
    <style>
      .cls-1 {
        font-family: Montserrat-Regular, Montserrat;
      }

      .cls-2 {
        font-size: 130px;
      }

      .cls-2, .cls-3 {
        fill: #274c78;
      }

      .cls-4 {
        letter-spacing: -.03em;
      }

      .cls-4, .cls-5, .cls-6 {
        font-family: Montserrat-SemiBold, Montserrat;
        font-weight: 600;
      }

      .cls-6 {
        letter-spacing: -.02em;
      }
    </style>
  </defs>
  <path class="cls-3" d="m1287.16,347.59L1193.72,10.86s-44.28-32.73-49.82,15.43c-5.54,48.16-15.56,135.75-15.56,135.75l34.24,6.17,12.46-107.98,48.89,206.57c-37.4-28.83-85.35-46.14-137.62-46.14-75.91,0-142.68,36.51-181.29,91.75h57.01c31.33-31.78,75.91-51.64,125.37-51.64,94.82,0,171.7,73,171.7,163.05s-76.88,163.06-171.7,163.06c-61.6,0-115.62-30.8-145.92-77.07h-50.43c34.81,68.02,109.14,115.01,195.26,115.01,119.5,0,216.37-90.47,216.37-202.08,0-26.57-5.54-51.91-15.52-75.15Zm-632.94,162.22c-30.29,46.27-84.31,77.07-145.91,77.07-94.82,0-171.7-73.01-171.7-163.06s76.88-163.05,171.7-163.05c49.46,0,94.03,19.86,125.36,51.64h54.85c-38.62-55.25-105.39-91.75-181.3-91.75-51.87,0-99.47,17.06-136.74,45.49l48.01-202.84,12.46,107.98,34.24-6.17s-10.02-87.59-15.56-135.75-49.82-15.42-49.82-15.42l-91.14,328.44c-11.45,24.63-17.82,51.79-17.82,80.35,0,111.61,96.87,202.08,216.37,202.08,86.12,0,160.48-46.99,195.3-115.01h-48.3Z"/>
  <text class="cls-2" transform="translate(353.74 471.57)"><tspan class="cls-1" x="0" y="0">ABC</tspan><tspan class="cls-5" x="284.7" y="0">O</tspan><tspan class="cls-4" x="394.16" y="0">P</tspan><tspan class="cls-5" x="484.64" y="0">TI</tspan><tspan class="cls-6" x="604.36" y="0">C</tspan><tspan class="cls-5" x="696.92" y="0">AL</tspan></text>
  <image width="392" height="97" transform="translate(0 224.42) scale(.6)" xlink:href="colorscheme.jpg"/>
</svg>